<?xml version="1.0" standalone="no"?><!DOCTYPE svg PUBLIC "-//W3C//DTD SVG 1.1//EN" "http://www.w3.org/Graphics/SVG/1.1/DTD/svg11.dtd"><svg t="1711986687722" class="icon" viewBox="0 0 1024 1024" version="1.1" xmlns="http://www.w3.org/2000/svg" p-id="2411" xmlns:xlink="http://www.w3.org/1999/xlink" width="200" height="200"><path d="M945.024 971.136c-6.912 0-13.44-2.752-18.368-7.68l-131.584-132.416c-10.24-10.304-10.24-26.944 0-37.184 4.928-4.992 11.392-7.808 18.368-7.808s13.504 2.816 18.432 7.808l131.584 132.416c10.24 10.24 10.24 26.944-0.064 37.248C958.592 968.384 952 971.136 945.024 971.136L945.024 971.136M524.288 919.68c-18.752 0-47.424-5.568-76.736-31.872-27.968-25.344-71.168-65.344-124.928-115.84l-3.2-2.496L265.6 758.912c-61.44-11.136-98.624-17.856-125.696-23.104-33.28-6.464-60.8-26.624-75.648-55.552-15.36-29.952-15.232-65.344 0.448-99.584 26.688-57.92 73.152-154.688 73.536-155.584l1.728-4.736 0.256-5.76C128.448 319.936 122.752 269.504 120 243.712c-3.328-31.616 6.848-63.36 28.288-87.168 20.736-23.104 50.304-36.416 81.216-36.416 3.584 0 7.168 0.064 10.752 0.448 50.816 5.12 129.984 14.336 172.672 19.328l3.648 0.128 7.808-2.176 3.776-1.6c25.792-12.48 101.952-49.28 151.04-71.936C595.584 56.768 612.48 52.928 629.44 52.928c52.608 0 96.704 37.696 107.584 91.52 12.032 59.904 28.736 153.856 30.656 164.288l1.024 3.776 13.824 16.576 5.952 6.272c33.984 35.776 72.576 76.224 99.776 105.728 34.688 37.632 35.008 75.008 32.128 93.888-2.88 19.072-14.528 55.04-60.16 81.344-48.256 27.776-120.512 67.392-149.312 83.072l-3.008 2.048-15.488 25.088-0.96 1.6c-14.848 27.264-49.792 91.136-73.408 132.224C596.544 898.048 562.368 919.68 524.288 919.68L524.288 919.68 524.288 919.68M343.04 717.568c25.344 26.176 138.368 129.088 139.392 130.048 13.568 12.096 27.52 18.368 41.6 18.368 13.504 0 32.768-5.696 48.192-32.64 29.568-51.84 79.104-142.72 94.272-170.944 39.808-21.568 118.784-64.832 167.04-92.672 20.352-11.776 31.872-26.368 34.496-43.712 2.624-16.896-3.776-33.728-18.752-50.112-40.64-44.096-108.928-115.328-130.112-137.28-4.352-29.12-27.072-150.976-33.856-184.768-5.952-30.016-28.032-49.344-56.128-49.344-9.344 0-18.88 2.24-28.352 6.656C546.048 136.512 455.04 180.48 427.008 194.176c-32-4.288-131.008-16.064-192-22.208-1.92-0.128-3.904-0.256-5.76-0.256-16.256 0-31.232 6.784-42.24 19.008C175.744 203.328 169.984 220.672 171.84 237.184 177.664 291.84 188.672 379.584 194.688 427.776c-12.48 25.408-57.664 119.744-82.56 174.016-11.328 24.512-7.04 42.432-1.472 53.312 7.296 14.336 21.504 24.704 38.784 28.032C208.448 694.464 311.232 712.128 343.04 717.568L343.04 717.568M343.04 717.568 343.04 717.568z" fill="#000000" p-id="2412"></path></svg>