<?xml version="1.0" standalone="no"?><!DOCTYPE svg PUBLIC "-//W3C//DTD SVG 1.1//EN" "http://www.w3.org/Graphics/SVG/1.1/DTD/svg11.dtd"><svg t="1711986874436" class="icon" viewBox="0 0 1024 1024" version="1.1" xmlns="http://www.w3.org/2000/svg" p-id="6394" xmlns:xlink="http://www.w3.org/1999/xlink" width="200" height="200"><path d="M767.018667 789.930667h-512c-12.8 0-21.333333-8.533333-21.333334-21.333334v-298.666666c0-153.6 123.733333-277.333333 277.333334-277.333334s277.333333 123.733333 277.333333 277.333334v298.666666c0 10.666667-8.533333 21.333333-21.333333 21.333334z m-490.666667-42.666667h469.333333v-277.333333c0-130.133333-104.533333-234.666667-234.666666-234.666667s-234.666667 104.533333-234.666667 234.666667v277.333333zM852.352 939.264h-682.666667c-12.8 0-21.333333-8.533333-21.333333-21.333333s8.533333-21.333333 21.333333-21.333334h682.666667c12.8 0 21.333333 8.533333 21.333333 21.333334s-8.533333 21.333333-21.333333 21.333333zM148.352 341.930667c-2.133333 0-4.266667 0-6.4-2.133334l-64-21.333333c-10.666667-4.266667-17.066667-14.933333-12.8-27.733333 4.266667-10.666667 14.933333-17.066667 27.733333-12.8l64 21.333333c10.666667 4.266667 17.066667 14.933333 12.8 27.733333-2.133333 8.533333-10.666667 14.933333-21.333333 14.933334zM297.685333 192.597333c-8.533333 0-17.066667-6.4-19.2-14.933333l-21.333333-64c-4.266667-10.666667 2.133333-23.466667 12.8-27.733333 12.8-4.266667 23.466667 2.133333 27.733333 14.933333l21.333334 64c4.266667 10.666667-2.133333 23.466667-12.8 27.733333h-8.533334zM212.352 256.597333c-4.266667 0-10.666667-2.133333-14.933333-6.4l-64-64c-8.533333-8.533333-8.533333-21.333333 0-29.866666s21.333333-8.533333 29.866666 0l64 64c8.533333 8.533333 8.533333 21.333333 0 29.866666-2.133333 4.266667-8.533333 6.4-14.933333 6.4z" fill="#000000" p-id="6395"></path></svg>