<?xml version="1.0" standalone="no"?><!DOCTYPE svg PUBLIC "-//W3C//DTD SVG 1.1//EN" "http://www.w3.org/Graphics/SVG/1.1/DTD/svg11.dtd"><svg t="1696587059078" class="icon" viewBox="0 0 1024 1024" version="1.1" xmlns="http://www.w3.org/2000/svg" p-id="5108" xmlns:xlink="http://www.w3.org/1999/xlink" width="200" height="200"><path d="M207.872 971.776l12.288-60.416c0-1.024 12.288-58.368 20.48-105.472h-38.912c-88.064 0-159.744-71.68-159.744-159.744v-434.176c0-88.064 71.68-159.744 159.744-159.744h618.496c88.064 0 159.744 71.68 159.744 159.744v434.176c0 88.064-71.68 159.744-159.744 159.744h-295.936l-316.416 165.888z m-7.168-861.184c-56.32 0-101.376 45.056-101.376 101.376v434.176c0 56.32 45.056 101.376 101.376 101.376h107.52l-5.12 33.792c-3.072 21.504-9.216 53.248-14.336 81.92l220.16-114.688h310.272c56.32 0 101.376-45.056 101.376-101.376v-434.176c0-56.32-45.056-101.376-101.376-101.376h-618.496z" p-id="5109"></path><path d="M247.808 506.88c-52.224 0-95.232-43.008-95.232-95.232 0-52.224 43.008-95.232 95.232-95.232 52.224 0 95.232 43.008 95.232 95.232 0 53.248-43.008 95.232-95.232 95.232z m0-132.096c-20.48 0-36.864 16.384-36.864 36.864s16.384 36.864 36.864 36.864 36.864-16.384 36.864-36.864c0-19.456-16.384-36.864-36.864-36.864zM509.952 506.88c-52.224 0-95.232-43.008-95.232-95.232 0-52.224 43.008-95.232 95.232-95.232 52.224 0 95.232 43.008 95.232 95.232 0 53.248-43.008 95.232-95.232 95.232z m0-132.096c-20.48 0-36.864 16.384-36.864 36.864s16.384 36.864 36.864 36.864 36.864-16.384 36.864-36.864c0-19.456-16.384-36.864-36.864-36.864zM772.096 506.88c-52.224 0-95.232-43.008-95.232-95.232 0-52.224 43.008-95.232 95.232-95.232 52.224 0 95.232 43.008 95.232 95.232 0 53.248-41.984 95.232-95.232 95.232z m0-132.096c-20.48 0-36.864 16.384-36.864 36.864s16.384 36.864 36.864 36.864 36.864-16.384 36.864-36.864c0-19.456-16.384-36.864-36.864-36.864z" p-id="5110"></path></svg>