<svg t="1710517830642" class="icon" viewBox="0 0 1024 1024" version="1.1" xmlns="http://www.w3.org/2000/svg" p-id="4968" width="200" height="200"><path d="M512 294.912l22.528 69.12a65.536 65.536 0 0 0 62.464 45.568h72.704l-58.368 42.496a65.536 65.536 0 0 0-24.064 73.728l22.528 69.12-58.368-42.496a66.048 66.048 0 0 0-77.312 0l-58.368 42.496 22.528-69.12a65.536 65.536 0 0 0-24.064-73.728L354.304 409.6h72.704a65.536 65.536 0 0 0 62.976-45.568L512 294.912m0-132.608a14.336 14.336 0 0 0-13.824 10.24L440.832 348.16a14.848 14.848 0 0 1-13.824 10.24H242.176a14.848 14.848 0 0 0-8.704 26.624l149.504 108.544a14.848 14.848 0 0 1 5.12 16.384l-56.832 175.616a14.848 14.848 0 0 0 14.336 19.456 14.336 14.336 0 0 0 8.704-3.072l148.992-108.032a14.848 14.848 0 0 1 17.408 0l149.504 108.544a14.336 14.336 0 0 0 8.704 3.072 14.848 14.848 0 0 0 14.336-19.456L635.904 512a14.848 14.848 0 0 1 5.12-16.384l149.504-108.544a14.848 14.848 0 0 0-8.704-28.672h-184.832a14.848 14.848 0 0 1-13.824-10.24l-57.344-175.616a14.336 14.336 0 0 0-13.824-10.24zM844.8 819.2h-665.6v51.2h665.6v-51.2z" fill="#333333" p-id="4969"></path><path d="M1024 1024H0V0h747.52L1024 282.624zM51.2 972.8h921.6V303.616L726.016 51.2H51.2z" fill="#333333" p-id="4970"></path></svg>