<?xml version="1.0" standalone="no"?><!DOCTYPE svg PUBLIC "-//W3C//DTD SVG 1.1//EN" "http://www.w3.org/Graphics/SVG/1.1/DTD/svg11.dtd"><svg t="1696654401468" class="icon" viewBox="0 0 1024 1024" version="1.1" xmlns="http://www.w3.org/2000/svg" p-id="6174" xmlns:xlink="http://www.w3.org/1999/xlink" width="200" height="200"><path d="M512 128a170.666667 170.666667 0 0 0-170.666667 170.666667v128h341.333334V298.666667a170.666667 170.666667 0 0 0-162.133334-170.453334L512 128z m298.666667 384H213.333333a42.666667 42.666667 0 0 0-42.666666 42.666667v298.666666a42.666667 42.666667 0 0 0 42.666666 42.666667h597.333334a42.666667 42.666667 0 0 0 42.666666-42.666667v-298.666666a42.666667 42.666667 0 0 0-42.666666-42.666667zM512 42.666667a256 256 0 0 1 256 256v128h42.666667a128 128 0 0 1 128 128v298.666666a128 128 0 0 1-128 128H213.333333a128 128 0 0 1-128-128v-298.666666a128 128 0 0 1 128-128h42.666667V298.666667a256 256 0 0 1 246.4-255.829334L512 42.666667z" fill="#347EC1" p-id="6175"></path></svg>