<svg t="1711423810663" class="icon" viewBox="0 0 1024 1024" version="1.1" xmlns="http://www.w3.org/2000/svg" p-id="7805" width="200" height="200"><path d="M85.333333 256a85.333333 85.333333 0 0 1 85.333334-85.333333h682.666666a85.333333 85.333333 0 0 1 85.333334 85.333333v469.333333a85.333333 85.333333 0 0 1-85.333334 85.333334h-195.669333l-115.498667 115.498666a42.666667 42.666667 0 0 1-60.330666 0L366.336 810.666667H170.666667a85.333333 85.333333 0 0 1-85.333334-85.333334V256z m768 0H170.666667v469.333333h213.333333a42.666667 42.666667 0 0 1 30.165333 12.501334L512 835.669333l97.834667-97.834666A42.666667 42.666667 0 0 1 640 725.333333h213.333333V256z" fill="#000000" p-id="7806"></path><path d="M576 490.666667a64 64 0 1 1-128 0 64 64 0 0 1 128 0zM746.666667 490.666667a64 64 0 1 1-128 0 64 64 0 0 1 128 0zM405.333333 490.666667a64 64 0 1 1-128 0 64 64 0 0 1 128 0z" fill="#000000" p-id="7807"></path></svg>