<svg t="1711424435210" class="icon" viewBox="0 0 1024 1024" version="1.1" xmlns="http://www.w3.org/2000/svg" p-id="10833" width="200" height="200"><path d="M633.582933 850.944l-113.015466-62.702933-113.186134 62.7712a87.790933 87.790933 0 0 1-92.3648-5.188267 89.088 89.088 0 0 1-36.181333-86.698667l22.528-138.5472-96.938667-99.669333a88.439467 88.439467 0 0 1-20.5824-90.2144 87.517867 87.517867 0 0 1 69.905067-59.1872l130.6624-19.968 56.9344-121.856a87.995733 87.995733 0 0 1 79.189333-50.4832 88.064 88.064 0 0 1 79.291734 50.688L656.725333 351.573333l130.628267 19.968a87.620267 87.620267 0 0 1 69.973333 59.221334 88.541867 88.541867 0 0 1-20.514133 90.0096l-97.109333 99.84 22.562133 138.717866a89.088 89.088 0 0 1-36.113067 86.528 87.074133 87.074133 0 0 1-92.535466 5.12z m42.154667-41.608533c7.168 0 14.1312-2.184533 20.036267-6.382934a36.522667 36.522667 0 0 0 14.609066-35.362133l-24.6784-151.620267a26.282667 26.282667 0 0 1 7.099734-22.528l106.359466-109.329066c9.4208-9.693867 12.629333-23.722667 8.2944-36.795734a35.1232 35.1232 0 0 0-28.0576-23.893333l-144.520533-22.1184a26.282667 26.282667 0 0 1-19.797333-14.848l-62.737067-134.109867a35.498667 35.498667 0 0 0-31.812267-20.650666c-13.380267 0-25.736533 7.918933-31.744 20.445866l-62.7712 134.314667a26.282667 26.282667 0 0 1-19.797333 14.848l-144.725333 22.152533c-12.731733 1.8432-23.552 11.025067-27.886934 23.9616-4.334933 12.868267-1.092267 27.170133 8.362667 36.727467l106.257067 109.329067a26.282667 26.282667 0 0 1 7.099733 22.493866l-24.610133 151.4496c-2.184533 13.858133 3.584 27.7504 14.4384 35.396267 11.127467 7.714133 25.326933 8.533333 36.9664 2.184533l125.713066-69.7344a26.282667 26.282667 0 0 1 25.463467 0l125.713067 69.7344c5.154133 2.8672 10.922667 4.334933 16.725333 4.334934z" fill="#979797" p-id="10834"></path></svg>